<svg xmlns="http://www.w3.org/2000/svg"
     height="512"
     width="652"
     viewBox="0 0 652 512">
  <path d="m605.09 453.81v-279.27q-11.636 13.091-25.091 24-97.455 74.909-154.91 122.91-18.545 15.636-30.182 24.364-11.636 8.7273-31.455 17.636-19.818 8.9091-37.273 8.9091h-0.72727q-17.455 0-37.273-8.9091-19.818-8.909-31.455-17.636-11.636-8.7273-30.182-24.364-57.45-48-154.9-122.91-13.459-10.9-25.095-24v279.27q0 4.7273 3.4545 8.1818t8.1818 3.4545h535.27q4.7273 0 8.1818-3.4545 3.4546-3.4545 3.4546-8.1818zm0-382.18v-8.9091l-0.18182-4.7273-1.0909-4.5455-2-3.2727-3.2727-2.7273-5.0909-0.909h-535.27q-4.735-0.003-8.19 3.451-3.4545 3.4545-3.4545 8.1818 0 61.091 53.455 103.27 70.182 55.273 145.82 115.27 2.1818 1.8182 12.727 10.727 10.545 8.9091 16.727 13.636 6.1818 4.7273 16.182 11.455 10 6.7272 18.364 10 8.3636 3.2727 15.636 3.2727h0.72727q7.2727 0 15.636-3.2727 8.3636-3.2728 18.364-10 10-6.7273 16.182-11.455 6.1818-4.7273 16.727-13.636 10.545-8.909 12.727-10.727 75.636-60 145.82-115.27 19.636-15.636 36.545-42t16.909-47.818zm46.545-13.455v395.64q0 24-17.091 41.091-17.1 17.09-41.1 17.09h-535.27q-24.002 0-41.093-17.09-17.089-17.09-17.089-41.09v-395.64q0-24 17.091-41.091 17.091-17.089 41.091-17.089h535.27q24 0 41.091 17.091t17.091 41.091z"/>
</svg>
