<svg xmlns="http://www.w3.org/2000/svg"
     height="512"
     width="652"
     viewBox="0 0 652 512">
  <path d="m651.64 165.09v288.73q0 24-17.091 41.091-17.1 17.09-41.1 17.09h-535.27q-24.002 0-41.093-17.09-17.089-17.09-17.089-41.09v-288.73q16 17.82 36.727 31.64 131.64 89.45 180.72 125.45 20.727 15.273 33.636 23.818 12.909 8.5455 34.364 17.454 21.455 8.9091 40 8.9091h0.72727q18.545 0 40-8.9091 21.455-8.909 34.364-17.454 12.909-8.5455 33.636-23.818 61.81-44.73 181.08-125.45 20.73-14.18 36.37-31.64zm0-106.91q0 28.727-17.818 54.909-17.82 26.18-44.37 44.73-136.72 94.91-170.18 118.18-3.6364 2.5455-15.455 11.091-11.818 8.5455-19.636 13.818-7.8182 5.2727-18.909 11.818-11.091 6.5454-20.909 9.8182-9.8182 3.2727-18.182 3.2727h-0.72727q-8.3636 0-18.182-3.2727-9.8182-3.2728-20.909-9.8182-11.091-6.5455-18.909-11.818-7.8182-5.2727-19.636-13.818-11.81-8.54-15.45-11.09-33.08-23.27-95.26-66.36-62.184-43.09-74.548-51.82-22.545-15.27-42.545-42-20-26.729-20-49.638-0.0001011-28.364 15.091-47.273t43.091-18.909h535.27q23.636 0 40.909 17.091t17.273 41.091z"/>
</svg>
