<svg xmlns="http://www.w3.org/2000/svg"
     viewBox="0 0 596 512">
  <path d="m581 4.81q6.32-6.32 10.6-4.33 4.32 2 4.32 10.6v490q0 8.65-4.32 10.6-4.32 2-10.6-4.33l-236-236q-2.99-2.99-4.32-6.32v236q0 8.65-4.32 10.6-4.32 2-10.6-4.33l-236-236q-2.99-2.99-4.32-6.32v226q0 8.65-6.32 15-6.32 6.32-15 6.32h-42.6q-8.65 0-15-6.32-6.32-6.32-6.32-15v-468q0-8.65 6.32-15 5.78-7.52 14.5-7.52h42.6q8.65 0 15 6.32 6.32 6.32 6.32 15v226q1.33-3.66 4.32-6.32l236-237q6.32-6.32 10.6-4.33 4.32 2 4.32 10.6v236q1.33-3.66 4.32-6.32z"/>
</svg>