<svg xmlns="http://www.w3.org/2000/svg"
     viewBox="0 0 596 512">
  <path d="m15 507q-6.32 6.32-10.6 4.33-4.32-2.01-4.32-10.7v-490q0-8.65 4.32-10.7 4.22-1.82 10.6 4.5l236 236q2.66 2.66 4.32 6.32v-236q0-8.65 4.32-10.6 4.32-2 10.6 4.33l237 236q2.66 2.66 4.32 6.32v-226q0-8.65 6.32-15 6.32-6.32 15-6.32h42.6q8.65 0 15 6.32 6.32 6.32 6.32 15v468q0 8.65-6.32 15-6.32 6.32-15 6.32h-42.6q-8.65 0-15-6.32-6.32-6.32-6.32-15v-226q-1.66 3.33-4.32 6.32l-237 238q-6.32 6.32-10.6 4.33-4.32-2-4.32-10.6v-236q-1.66 3.33-4.32 6.32z"/>
</svg>