<svg xmlns="http://www.w3.org/2000/svg"
     height="512"
     width="512"
     viewBox="0 0 512 512">
  <path d="m512 404.36q0 9.8182-3.6364 25.636t-7.6363 24.909q-7.6363 18.182-44.364 38.545-34.18 18.55-67.63 18.55-9.8181 0-19.091-1.2727-9.2726-1.2728-20.909-4.5455t-17.273-5.2727q-5.6364-2-20.182-7.4546-14.55-5.45-17.83-6.54-35.63-12.73-63.629-30.18-46.55-28.73-96.18-78.37-49.64-49.63-78.367-96.18-17.455-28-30.182-63.63-1.091-3.28-6.546-17.82-5.454-14.54-7.454-20.18-2.0004-5.63-5.273-17.27t-4.5453-20.92q-1.2727-9.27-1.2727-19.09 0-33.452 18.545-67.634 20.364-36.727 38.546-44.363 9.09-4.0003 24.908-7.6366 15.818-3.6364 25.641-3.6364 5.0909 0 7.6363 1.0909 6.5454 2.1818 19.273 27.636 4 6.9091 10.909 19.636t12.727 23.091q5.8182 10.364 11.273 19.455 1.0909 1.4545 6.3636 9.0909 5.2726 7.6364 7.8181 12.909 2.5455 5.2727 2.5455 10.364 0 7.2728-10.364 18.182t-22.545 20q-12.182 9.091-22.545 19.273-10.364 10.182-10.364 16.727 0 3.2728 1.8182 8.1819t3.0909 7.4545q1.2727 2.5455 5.0909 8.7273t4.1818 6.9091q27.636 49.818 63.272 85.454t85.454 63.273q0.72726 0.3637 6.909 4.1819 6.1818 3.8181 8.7272 5.0909 2.5455 1.2727 7.4545 3.0909 4.9091 1.8182 8.1817 1.8182 6.5454 0 16.727-10.364 10.181-10.364 19.273-22.545 9.0908-12.182 20-22.546t18.182-10.364q5.0909 0 10.364 2.5454 5.2726 2.5455 12.909 7.8182 7.6363 5.2727 9.0908 6.3637 9.0908 5.4545 19.455 11.273 10.364 5.8182 23.091 12.727 12.727 6.909 19.636 10.909 25.455 12.727 27.636 19.273 1.09 2.55 1.09 7.64z"/>
</svg>
