<svg xmlns="http://www.w3.org/2000/svg"
     height="512"
     width="512"
     viewBox="0 0 512 512">
  <path d="m504.02 3.1399q9.4294 6.8571 7.7149 18.286l-73.143 438.85q-1.4286 8.2856-9.1436 12.857-4.0003 2.2857-8.858 2.2857-3.143 0-6.8576-1.4286l-129.42-52.86-69.15 84.29q-5.1501 6.58-14 6.58-3.7146 0-6.2862-1.1429-5.4291-2-8.715-6.7141-3.286-4.7142-3.286-10.429v-99.714l246.9-302.58-305.46 264.28-112.86-46.26q-10.56-4-11.418-15.71-0.5719-11.43 9.1432-16.86l475.45-274.3q4.29-2.57 9.15-2.57 5.7148 0 10.286 3.1429z"/>
</svg>
