<svg xmlns="http://www.w3.org/2000/svg"
     viewBox="0 0 630 512">
  <path d="m630.4 60.8q-26.8 39.2-64.8 66.8 0.4 5.6 0.4 16.8 0 52-15.2 103.8t-46.2 99.4-73.8 84.2-103.2 58.4-129.2 21.8q-108.4 0-198.4-58 14 1.6 31.2 1.6 90 0 160.4-55.2-42-0.8-75.2-25.8t-45.6-63.8q13.2 2 24.4 2 17.2 0 34-4.4-44.8-9.2-74.2-44.6t-29.4-82.2v-1.6q27.2 15.2 58.4 16.4-26.4-17.6-42-46t-15.6-61.6q0-35.2 17.6-65.2 48.4 59.6 117.8 95.4t148.6 39.8q-3.2-15.2-3.2-29.6 0-53.6 37.8-91.4t91.4-37.8q56 0 94.4 40.8 43.6-8.4 82-31.2-14.8 46-56.8 71.2 37.2-4 74.4-20z"/>
</svg>