<svg xmlns="http://www.w3.org/2000/svg"
     viewBox="0 0 747 512">
  <path d="m501.87 261.94c0 48.429-10.128 91.562-30.385 129.4-20.256 37.835-49.128 67.405-86.614 88.71-37.48 21.3-80.44 31.95-128.87 31.95-34.69 0-67.87-6.75-99.54-20.26-31.66-13.5-58.903-31.66-81.721-54.48-22.817-22.82-40.978-50.06-54.483-81.72-13.504-31.67-20.256-64.85-20.256-99.54s6.7522-67.87 20.256-99.54c13.505-31.66 31.666-58.903 54.483-81.721 22.818-22.817 50.061-40.978 81.721-54.483 31.67-13.504 64.85-20.256 99.54-20.256 66.59 0 123.75 22.352 171.48 67.056l-69.5 66.704c-27.24-26.31-61.23-39.463-101.98-39.463-28.638 0-55.123 7.2178-79.454 21.654s-43.598 34.052-57.801 58.849c-14.2 24.8-21.299 51.86-21.299 81.2 0 29.337 7.1014 56.404 21.304 81.2 14.203 24.797 33.47 44.413 57.801 58.849s50.816 21.654 79.454 21.654c19.325 0 37.079-2.6776 53.261-8.0328 16.182-5.3551 29.512-12.049 39.989-20.082 10.477-8.0327 19.616-17.171 27.416-27.416 7.7999-10.245 13.504-19.907 17.113-28.988 3.6089-9.0805 6.1119-17.695 7.5089-25.844h-145.29v-88.011h241.68c2.794 14.668 4.191 28.871 4.191 42.608zm245.1-42.608v73.342h-72.993v72.993h-73.342v-72.993h-72.993v-73.342h72.993v-72.993h73.342v72.993z"/>
</svg>