<svg xmlns="http://www.w3.org/2000/svg"
     height="512"
     width="512"
     viewBox="0 0 512 512">
  <path d="m151.4 108.15q0-17.912-12.673-30.585t-30.585-12.673-30.585 12.673-12.673 30.585 12.673 30.585 30.585 12.673 30.585-12.673 12.673-30.585zm360.6 194.66q0 17.912-12.504 30.416l-165.94 166.27q-13.18 12.5-30.75 12.5-17.91 0-30.42-12.5l-241.64-241.98q-12.838-12.5-21.794-34.13t-8.956-39.54v-140.59q0-17.576 12.842-30.418t30.416-12.842h140.59q17.912 0 39.541 8.9558t34.471 21.798l241.64 241.3q12.5 13.18 12.5 30.76z"/>
</svg>
