<svg xmlns="http://www.w3.org/2000/svg"
     height="512"
     width="512"
     viewBox="0 0 512 512">
  <path d="m490.67 425.67q0 40-24.333 63.167-24.35 23.16-64.68 23.16h-291.33q-40.333 0-64.668-23.167-24.333-23.167-24.333-63.167 0-17.667 1.1667-34.5t4.6667-36.333 8.8335-36.167q5.3333-16.667 14.333-32.5 9.0002-15.833 20.667-27t28.5-17.833q16.833-6.6667 37.167-6.6667 3 0 14 7.1667 11 7.1668 24.833 16 13.833 8.8335 36 16 22.16 7.1601 44.49 7.1601 22.333 0 44.5-7.1669 22.167-7.1667 36-16 13.833-8.8335 24.833-16 11-7.1667 14-7.1667 20.333 0 37.167 6.6667 16.833 6.6668 28.5 17.833 11.667 11.167 20.667 27 9.0001 15.833 14.333 32.5 5.3334 16.667 8.8335 36.167 3.5 19.5 4.6667 36.333t1.1667 34.5zm-106.67-297.67q0 53-37.5 90.502-37.5 37.5-90.502 37.5-53 0-90.502-37.5-37.5-37.5-37.5-90.502 0-53 37.5-90.502 37.5-37.496 90.5-37.496t90.5 37.5q37.5 37.501 37.5 90.5z"/>
</svg>
