<svg xmlns="http://www.w3.org/2000/svg"
     height="512"
     width="1075"
     viewBox="0 0 1075 512">
  <path fill="#005a9c"
        d="m254.5 2.8546 91.136 309.88 91.125-309.88h247.06v30.804l-93.028 160.29c32.681 10.478 57.396 29.556 74.151 57.204 16.765 27.664 25.156 60.123 25.156 97.416 0 46.114-12.272 84.869-36.788 116.29-24.52 31.43-56.25 47.15-95.21 47.15-29.338 0-54.886-9.3109-76.66-27.96-21.791-18.648-37.917-43.889-48.387-75.746l51.521-21.369c7.5467 19.277 17.501 34.47 29.864 45.561 12.358 11.107 26.919 16.666 43.674 16.666 17.582 0 32.471-9.8485 44.62-29.535 12.159-19.697 18.238-43.362 18.238-71.042 0-30.594-6.4986-54.274-19.474-71.031-15.109-19.686-38.782-29.546-71.039-29.546h-25.123v-30.164l87.975-152.12h-106.19l-6.0417 10.29-129.18 435.92h-6.2836l-94.281-315.51-94.259 315.51h-6.2782l-150.8-509.08h65.986l91.124 309.88 61.6-208.66-30.16-101.21h65.97v-0.021499z"/>
  <path d="m1026.8 2.8546c-12.954 0-24.586 4.6717-33.407 13.628-9.3528 9.5045-14.562 21.777-14.562 34.47s4.9559 24.454 14.035 33.685c9.2291 9.3539 21.113 14.44 33.939 14.44 12.546 0 24.726-5.0802 34.191-14.289 9.0787-8.8217 14.034-20.578 14.034-33.809 0-12.833-5.0795-24.852-13.89-33.809-9.1378-9.3808-21.178-14.316-34.294-14.316zm41.819 48.512c0 11.096-4.2947 21.39-12.148 28.992-8.2938 8.0316-18.582 12.306-29.94 12.306-10.676 0-21.226-4.3975-29.123-12.424-7.8746-8.0316-12.293-18.31-12.293-29.261 0-10.962 4.5474-21.648 12.691-29.922 7.6112-7.7574 17.888-11.886 29.112-11.886 11.498 0 21.775 4.2953 29.795 12.424 7.7941 7.7305 11.933 18.132 11.933 29.771zm-40.475-28.605h-20.565v54.527h10.288v-23.245h10.165l11.089 23.245h11.487l-12.17-24.842c7.8747-1.6182 12.433-6.951 12.433-14.698 0.054-9.8915-7.4713-14.988-22.683-14.988zm-1.8813 6.6876c9.6162 0 14.024 2.6771 14.024 9.3539 0 6.4026-4.4076 8.6928-13.777 8.6928h-8.6916v-18.046h8.439z"/>
  <path d="m945.84 0 10.686 64.994-37.836 72.407s-14.519-30.723-38.653-47.711c-20.323-14.322-33.573-17.439-54.289-13.166-26.602 5.4887-56.767 37.298-69.931 76.52-15.749 46.915-15.905 69.633-16.464 90.486-0.88152 33.454 4.3862 53.199 4.3862 53.199s-22.979-42.502-22.758-104.76c0.14513-44.448 7.1383-84.745 27.693-124.51 18.087-34.965 44.974-55.951 68.84-58.419 24.672-2.5427 44.157 9.3432 59.234 22.207 15.808 13.526 31.8 43.061 31.8 43.061l37.19-74.305z"/>
  <path d="m950.51 367.75s-16.722 29.906-27.139 41.421c-10.423 11.532-29.069 31.814-52.09 41.969-23.022 10.145-35.095 12.042-57.858 9.8701-22.731-2.1826-43.862-15.348-51.263-20.842-7.4017-5.4941-26.327-21.659-37.03-36.749-10.708-15.09-27.424-45.243-27.424-45.243s9.3098 30.228 15.157 43.061c3.3488 7.3918 13.659 29.976 28.306 49.63 13.659 18.331 40.18 49.904 80.482 57.032 40.303 7.1391 67.996-10.972 74.854-15.348 6.8426-4.376 21.291-16.483 30.445-26.282 9.5409-10.193 18.582-23.223 23.57-31.035 3.6659-5.7145 9.6162-17.284 9.6162-17.284l-9.6216-50.163z"/>
</svg>
